<svg xmlns="http://www.w3.org/2000/svg" width="24" height="24" viewBox="0 0 24 24" fill="none" stroke="white" stroke-width="2" stroke-linecap="round" stroke-linejoin="round" class="feather feather-youtube">
  <path d="M22.54 6.42a2.78 2.78 0 0 0-1.95-2C18.88 4 12 4 12 4s-6.88 0-8.59.42a2.78 2.78 0 0 0-1.95 2A29.4 29.4 0 0 0 1 12a29.4 29.4 0 0 0 .46 5.58 2.78 2.78 0 0 0 1.95 2c1.71.42 8.59.42 8.59.42s6.88 0 8.59-.42a2.78 2.78 0 0 0 1.95-2A29.4 29.4 0 0 0 23 12a29.4 29.4 0 0 0-.46-5.58z"></path>
  <polygon points="9.75 15.02 15.27 12 9.75 8.98 9.75 15.02"></polygon>
</svg>
