<svg role="img" viewBox="0 0 24 24" xmlns="http://www.w3.org/2000/svg">
  <title>YouTube icon</title>
  <path fill="#ffffff" d="M23.498 6.186c-.285-1.07-1.125-1.91-2.195-2.198C19.421 3.427 12 3.427 12 3.427s-7.421 0-9.303.561c-1.07.285-1.91 1.125-2.195 2.198C.866 8.058.866 12 .866 12s0 3.942.636 5.814c.285 1.07 1.125 1.91 2.195 2.198C4.579 20.573 12 20.573 12 20.573s7.421 0 9.303-.561c1.07-.285 1.91-1.125 2.195-2.198.636-1.872.636-5.814.636-5.814s0-3.942-.636-5.814zM9.753 15.02V8.98l5.516 3.02-5.516 3.02z"/>
</svg>
